<?xml version="1.0" encoding="UTF-8"?>
<svg id="Layer_1" data-name="Layer 1" xmlns="http://www.w3.org/2000/svg" viewBox="0 0 15.84 11.49">
  <defs>
    <style>
      .cls-1 {
        fill: #723d96;
      }

      .cls-2 {
        fill: #d91e8d;
      }

      .cls-3 {
        fill: #30469c;
      }

      .cls-4 {
        fill: #309ed8;
      }

      .cls-5 {
        fill: none;
      }

      .cls-6 {
        fill: #f8c90f;
      }
    </style>
  </defs>
  <rect class="cls-5" x="3.33" y="3.82" width=".83" height=".83"/>
  <rect class="cls-5" x="1.89" y=".66" width=".83" height=".83"/>
  <rect class="cls-5" x=".66" y="6.86" width=".83" height=".83"/>
  <rect class="cls-5" x="3.33" y="9.77" width=".83" height=".83"/>
  <path class="cls-4" d="m10.22,8.92h4.72c.03-.17-.23-.41-.23-.41l.14-.08c.28-.06.28-.25.16-.52-.12-.27.02-.52.51-.66.05-.01.09-.03.12-.04h-6.46v.02h-1.92c.17.34.34.65.49.97h-.64l-1.56,1.62h-.75v-.7h-2.14v2.06h2.14v-.63h1.06l1.56-1.62h0s2.79,0,2.79,0h0Zm-6.07,1.68h-.83v-.83h.83v.83Z"/>
  <path class="cls-1" d="m14.83,9.04c-.33.11-.42.22-.33.48.09.26.23,1-.59.88,0,0-.38-.08-1.07-.18-.59-.09-.87.52-1.03,1.21,0,.02-.01.03-.02.05-1.1.02-2.79-.08-4.11-.74.23-.4.39-.82.42-1.22h2.13v-.6h4.72c0,.05-.04.1-.12.12Z"/>
  <path class="cls-3" d="m9.6,2.51h4.94C13.35.18,9.62-.11,7.75,1.77h-1.28l-1.24-1.06h-1.85v-.7H1.24v2.14h2.14v-.7h1.58l1.23,1.06h3.41v.02ZM2.72,1.48h-.83v-.83h.83v.83Z"/>
  <path class="cls-6" d="m11.18,4.61h3.71c.08-.82-.06-1.52-.35-2.09h-4.94v.58h-2.69c-.09.24-.15.49-.19.76h-1.91v-.69h-2.14v2.14h2.14v-.72h1.76s4.61,0,4.61,0v.03Zm-7.03.04h-.83v-.83h.83v.83Z"/>
  <path class="cls-2" d="m9.18,7.21h6.46c.34-.14.21-.39-.22-1-.62-.88-.54-1.55-.54-1.55,0-.02,0-.03,0-.05h-3.71v.57h-4.49c.02.26.06.5.11.72h-2.21l-.83,1.1h-1.61v-.79H0v2.17h2.14v-.66h1.98l.83-1.1h.36s3.88,0,3.88,0v.59Zm-7.7.48h-.83v-.83h.83v.83Z"/>
</svg>